<mxfile host="app.diagrams.net" modified="2023-09-27T09:56:10.896Z" agent="Mozilla/5.0 (Windows NT 10.0; Win64; x64) AppleWebKit/537.36 (KHTML, like Gecko) Chrome/117.0.0.0 Safari/537.36 Edg/117.0.2045.41" version="21.8.2" etag="7lXzx3TwgrkrIcpQ-VWl" type="github">
  <diagram name="Page-1" id="keuauw15mZgiaEO5U_Ts">
    <mxGraphModel>
      <root>
        <mxCell id="0" />
        <mxCell id="1" parent="0" />
      </root>
    </mxGraphModel>
  </diagram>
</mxfile>
